# xmcd
#
# Track frame offsets: 
#        150
#        17106
#        35593
#        52319
#        70497
#        94537
#        108781
#        126425
#        139598
#        163610
#
# Disc length: 2441 seconds
#
# Revision: 0
# Processed by: cddbd v1.5.2PL0 Copyright (c) Steve Scherf et al.
# Submitted via: ExactAudioCopyFreeDBPlugin 1.0
#
DISCID=8b09870a
DTITLE=George and Noriko - Howlin' Sun
DYEAR=2016
DGENRE=Blues
TTITLE0=Queen Of Underground
TTITLE1=Yamatsumi No Sato
TTITLE2=Devil In Your Bed
TTITLE3=Day I Die
TTITLE4=Howling Dog Boogie
TTITLE5=Kuroishi Yosare Bushi
TTITLE6=Old Shoes
TTITLE7=Akita Ondo
TTITLE8=Hold On
TTITLE9=Night Carnival
EXTD=
EXTT0=
EXTT1=
EXTT2=
EXTT3=
EXTT4=
EXTT5=
EXTT6=
EXTT7=
EXTT8=
EXTT9=
PLAYORDER=
